<mxfile host="app.diagrams.net" agent="Mozilla/5.0 (Windows NT 10.0; Win64; x64) AppleWebKit/537.36 (KHTML, like Gecko) Chrome/131.0.0.0 Safari/537.36" version="25.0.3">
  <diagram name="Page-1" id="KJoU3d3SJdPES4LQAqq6">
    <mxGraphModel dx="2791" dy="-1443" grid="1" gridSize="10" guides="1" tooltips="1" connect="1" arrows="1" fold="1" page="1" pageScale="1" pageWidth="850" pageHeight="1100" math="0" shadow="0">
      <root>
        <mxCell id="0" />
        <mxCell id="1" parent="0" />
        <mxCell id="0KqqUuabSOPp1zFiWMTm-1" value="" style="rounded=0;whiteSpace=wrap;html=1;strokeColor=default;align=center;verticalAlign=middle;fontFamily=Helvetica;fontSize=12;fontColor=#000000;labelBorderColor=none;labelBackgroundColor=default;fillColor=default;" vertex="1" parent="1">
          <mxGeometry x="681.79" y="3470" width="1508.21" height="340" as="geometry" />
        </mxCell>
        <mxCell id="0KqqUuabSOPp1zFiWMTm-2" value="Burning Crusade" style="rounded=0;whiteSpace=wrap;html=1;strokeColor=default;align=left;verticalAlign=top;fontFamily=Helvetica;fontSize=12;fontColor=#000000;labelBorderColor=none;labelBackgroundColor=default;fillColor=default;" vertex="1" parent="1">
          <mxGeometry x="682.38" y="3570" width="720" height="240" as="geometry" />
        </mxCell>
        <mxCell id="0KqqUuabSOPp1zFiWMTm-3" value="" style="edgeStyle=orthogonalEdgeStyle;rounded=0;orthogonalLoop=1;jettySize=auto;html=1;" edge="1" parent="1" source="0KqqUuabSOPp1zFiWMTm-4" target="0KqqUuabSOPp1zFiWMTm-6">
          <mxGeometry relative="1" as="geometry" />
        </mxCell>
        <mxCell id="0KqqUuabSOPp1zFiWMTm-4" value="Rise of Demons" style="rounded=0;whiteSpace=wrap;html=1;strokeColor=default;align=center;verticalAlign=middle;fontFamily=Helvetica;fontSize=12;fontColor=#000000;labelBorderColor=none;labelBackgroundColor=default;fillColor=default;" vertex="1" parent="1">
          <mxGeometry x="46.00000000000031" y="3717" width="57.14" height="30" as="geometry" />
        </mxCell>
        <mxCell id="0KqqUuabSOPp1zFiWMTm-5" style="edgeStyle=none;shape=connector;rounded=0;orthogonalLoop=1;jettySize=auto;html=1;strokeColor=default;align=center;verticalAlign=middle;fontFamily=Helvetica;fontSize=11;fontColor=default;labelBackgroundColor=default;endArrow=classic;" edge="1" parent="1" source="0KqqUuabSOPp1zFiWMTm-6" target="0KqqUuabSOPp1zFiWMTm-7">
          <mxGeometry relative="1" as="geometry" />
        </mxCell>
        <mxCell id="0KqqUuabSOPp1zFiWMTm-6" value="Rise of Black Empire" style="rounded=0;whiteSpace=wrap;html=1;strokeColor=default;align=center;verticalAlign=middle;fontFamily=Helvetica;fontSize=12;fontColor=#000000;labelBorderColor=none;labelBackgroundColor=default;fillColor=default;" vertex="1" parent="1">
          <mxGeometry x="183.1400000000003" y="3717" width="57.14" height="30" as="geometry" />
        </mxCell>
        <mxCell id="0KqqUuabSOPp1zFiWMTm-7" value="War Between Titans and Old Gods" style="rounded=0;whiteSpace=wrap;html=1;strokeColor=default;align=center;verticalAlign=middle;fontFamily=Helvetica;fontSize=12;fontColor=#000000;labelBorderColor=none;labelBackgroundColor=default;fillColor=default;direction=south;" vertex="1" parent="1">
          <mxGeometry x="291.3400000000003" y="3630" width="30" height="57.14" as="geometry" />
        </mxCell>
        <mxCell id="0KqqUuabSOPp1zFiWMTm-8" value="" style="edgeStyle=orthogonalEdgeStyle;rounded=0;orthogonalLoop=1;jettySize=auto;html=1;" edge="1" parent="1" source="0KqqUuabSOPp1zFiWMTm-9" target="0KqqUuabSOPp1zFiWMTm-11">
          <mxGeometry relative="1" as="geometry" />
        </mxCell>
        <mxCell id="0KqqUuabSOPp1zFiWMTm-9" value="Burning Crusade" style="rounded=0;whiteSpace=wrap;html=1;strokeColor=default;align=center;verticalAlign=middle;fontFamily=Helvetica;fontSize=12;fontColor=#000000;labelBorderColor=none;labelBackgroundColor=default;fillColor=default;" vertex="1" parent="1">
          <mxGeometry x="320.2800000000003" y="3790" width="57.14" height="30" as="geometry" />
        </mxCell>
        <mxCell id="0KqqUuabSOPp1zFiWMTm-10" value="" style="edgeStyle=orthogonalEdgeStyle;rounded=0;orthogonalLoop=1;jettySize=auto;html=1;exitX=0.5;exitY=1;exitDx=0;exitDy=0;" edge="1" parent="1" source="0KqqUuabSOPp1zFiWMTm-11" target="0KqqUuabSOPp1zFiWMTm-17">
          <mxGeometry relative="1" as="geometry" />
        </mxCell>
        <mxCell id="0KqqUuabSOPp1zFiWMTm-11" value="War of Ancients" style="rounded=0;whiteSpace=wrap;html=1;strokeColor=default;align=center;verticalAlign=middle;fontFamily=Helvetica;fontSize=12;fontColor=#000000;labelBorderColor=none;labelBackgroundColor=default;fillColor=default;" vertex="1" parent="1">
          <mxGeometry x="713.3700000000003" y="3610" width="57.14" height="30" as="geometry" />
        </mxCell>
        <mxCell id="0KqqUuabSOPp1zFiWMTm-12" style="rounded=0;orthogonalLoop=1;jettySize=auto;html=1;entryX=0;entryY=0;entryDx=0;entryDy=0;" edge="1" parent="1" source="0KqqUuabSOPp1zFiWMTm-14" target="0KqqUuabSOPp1zFiWMTm-11">
          <mxGeometry relative="1" as="geometry" />
        </mxCell>
        <mxCell id="0KqqUuabSOPp1zFiWMTm-13" style="edgeStyle=none;shape=connector;rounded=0;orthogonalLoop=1;jettySize=auto;html=1;strokeColor=default;align=center;verticalAlign=middle;fontFamily=Helvetica;fontSize=11;fontColor=default;labelBackgroundColor=default;endArrow=classic;entryX=0;entryY=0.75;entryDx=0;entryDy=0;" edge="1" parent="1" source="0KqqUuabSOPp1zFiWMTm-14" target="0KqqUuabSOPp1zFiWMTm-42">
          <mxGeometry relative="1" as="geometry" />
        </mxCell>
        <mxCell id="0KqqUuabSOPp1zFiWMTm-14" value="Elemental Sundering" style="rounded=0;whiteSpace=wrap;html=1;strokeColor=default;align=center;verticalAlign=middle;fontFamily=Helvetica;fontSize=12;fontColor=#000000;labelBorderColor=none;labelBackgroundColor=default;fillColor=default;" vertex="1" parent="1">
          <mxGeometry x="327.6700000000003" y="3490" width="57.14" height="30" as="geometry" />
        </mxCell>
        <mxCell id="0KqqUuabSOPp1zFiWMTm-15" value="" style="edgeStyle=orthogonalEdgeStyle;rounded=0;orthogonalLoop=1;jettySize=auto;html=1;" edge="1" parent="1" source="0KqqUuabSOPp1zFiWMTm-17" target="0KqqUuabSOPp1zFiWMTm-19">
          <mxGeometry relative="1" as="geometry" />
        </mxCell>
        <mxCell id="0KqqUuabSOPp1zFiWMTm-16" value="" style="edgeStyle=orthogonalEdgeStyle;rounded=0;orthogonalLoop=1;jettySize=auto;html=1;" edge="1" parent="1" source="0KqqUuabSOPp1zFiWMTm-17" target="0KqqUuabSOPp1zFiWMTm-23">
          <mxGeometry relative="1" as="geometry" />
        </mxCell>
        <mxCell id="0KqqUuabSOPp1zFiWMTm-17" value="First War" style="rounded=0;whiteSpace=wrap;html=1;strokeColor=default;align=center;verticalAlign=middle;fontFamily=Helvetica;fontSize=12;fontColor=#000000;labelBorderColor=none;labelBackgroundColor=default;fillColor=default;" vertex="1" parent="1">
          <mxGeometry x="456.9300000000003" y="3900" width="57.14" height="30" as="geometry" />
        </mxCell>
        <mxCell id="0KqqUuabSOPp1zFiWMTm-18" value="" style="edgeStyle=orthogonalEdgeStyle;rounded=0;orthogonalLoop=1;jettySize=auto;html=1;" edge="1" parent="1" source="0KqqUuabSOPp1zFiWMTm-19" target="0KqqUuabSOPp1zFiWMTm-21">
          <mxGeometry relative="1" as="geometry" />
        </mxCell>
        <mxCell id="0KqqUuabSOPp1zFiWMTm-19" value="Second War" style="rounded=0;whiteSpace=wrap;html=1;strokeColor=default;align=center;verticalAlign=middle;fontFamily=Helvetica;fontSize=12;fontColor=#000000;labelBorderColor=none;labelBackgroundColor=default;fillColor=default;" vertex="1" parent="1">
          <mxGeometry x="594.0700000000003" y="3900" width="57.14" height="30" as="geometry" />
        </mxCell>
        <mxCell id="0KqqUuabSOPp1zFiWMTm-20" value="" style="edgeStyle=orthogonalEdgeStyle;rounded=0;orthogonalLoop=1;jettySize=auto;html=1;" edge="1" parent="1" source="0KqqUuabSOPp1zFiWMTm-21" target="0KqqUuabSOPp1zFiWMTm-27">
          <mxGeometry relative="1" as="geometry" />
        </mxCell>
        <mxCell id="0KqqUuabSOPp1zFiWMTm-21" value="Third War" style="rounded=0;whiteSpace=wrap;html=1;strokeColor=default;align=center;verticalAlign=middle;fontFamily=Helvetica;fontSize=12;fontColor=#000000;labelBorderColor=none;labelBackgroundColor=default;fillColor=default;" vertex="1" parent="1">
          <mxGeometry x="731.2100000000003" y="3900" width="57.14" height="30" as="geometry" />
        </mxCell>
        <mxCell id="0KqqUuabSOPp1zFiWMTm-22" value="" style="edgeStyle=orthogonalEdgeStyle;rounded=0;orthogonalLoop=1;jettySize=auto;html=1;" edge="1" parent="1" source="0KqqUuabSOPp1zFiWMTm-23" target="0KqqUuabSOPp1zFiWMTm-25">
          <mxGeometry relative="1" as="geometry" />
        </mxCell>
        <mxCell id="0KqqUuabSOPp1zFiWMTm-23" value="Invasion of Outland" style="rounded=0;whiteSpace=wrap;html=1;strokeColor=default;align=center;verticalAlign=middle;fontFamily=Helvetica;fontSize=12;fontColor=#000000;labelBorderColor=none;labelBackgroundColor=default;fillColor=default;" vertex="1" parent="1">
          <mxGeometry x="456.9300000000003" y="4010" width="57.14" height="30" as="geometry" />
        </mxCell>
        <mxCell id="0KqqUuabSOPp1zFiWMTm-24" value="" style="edgeStyle=orthogonalEdgeStyle;rounded=0;orthogonalLoop=1;jettySize=auto;html=1;" edge="1" parent="1" source="0KqqUuabSOPp1zFiWMTm-25" target="0KqqUuabSOPp1zFiWMTm-26">
          <mxGeometry relative="1" as="geometry" />
        </mxCell>
        <mxCell id="0KqqUuabSOPp1zFiWMTm-25" value="War in Draneor" style="rounded=0;whiteSpace=wrap;html=1;strokeColor=default;align=center;verticalAlign=middle;fontFamily=Helvetica;fontSize=12;fontColor=#000000;labelBorderColor=none;labelBackgroundColor=default;fillColor=default;" vertex="1" parent="1">
          <mxGeometry x="456.9300000000003" y="4120" width="57.14" height="30" as="geometry" />
        </mxCell>
        <mxCell id="0KqqUuabSOPp1zFiWMTm-26" value="Third Invasion" style="rounded=0;whiteSpace=wrap;html=1;strokeColor=default;align=center;verticalAlign=middle;fontFamily=Helvetica;fontSize=12;fontColor=#000000;labelBorderColor=none;labelBackgroundColor=default;fillColor=default;" vertex="1" parent="1">
          <mxGeometry x="456.9300000000003" y="4230" width="57.14" height="30" as="geometry" />
        </mxCell>
        <mxCell id="0KqqUuabSOPp1zFiWMTm-27" value="Fourth War" style="rounded=0;whiteSpace=wrap;html=1;strokeColor=default;align=center;verticalAlign=middle;fontFamily=Helvetica;fontSize=12;fontColor=#000000;labelBorderColor=none;labelBackgroundColor=default;fillColor=default;" vertex="1" parent="1">
          <mxGeometry x="868.3500000000003" y="3900" width="57.14" height="30" as="geometry" />
        </mxCell>
        <mxCell id="0KqqUuabSOPp1zFiWMTm-28" style="edgeStyle=none;shape=connector;rounded=0;orthogonalLoop=1;jettySize=auto;html=1;strokeColor=default;align=center;verticalAlign=middle;fontFamily=Helvetica;fontSize=11;fontColor=default;labelBackgroundColor=default;endArrow=classic;exitX=0;exitY=1;exitDx=0;exitDy=0;" edge="1" parent="1" source="0KqqUuabSOPp1zFiWMTm-29" target="0KqqUuabSOPp1zFiWMTm-11">
          <mxGeometry relative="1" as="geometry" />
        </mxCell>
        <mxCell id="0KqqUuabSOPp1zFiWMTm-29" value="War between Kaldorei andTwin Empires" style="rounded=0;whiteSpace=wrap;html=1;strokeColor=default;align=center;verticalAlign=middle;fontFamily=Helvetica;fontSize=12;fontColor=#000000;labelBorderColor=none;labelBackgroundColor=default;fillColor=default;" vertex="1" parent="1">
          <mxGeometry x="1232.8600000000001" y="3490" width="57.14" height="30" as="geometry" />
        </mxCell>
        <mxCell id="0KqqUuabSOPp1zFiWMTm-30" value="" style="edgeStyle=none;shape=connector;rounded=0;orthogonalLoop=1;jettySize=auto;html=1;strokeColor=default;align=center;verticalAlign=middle;fontFamily=Helvetica;fontSize=11;fontColor=default;labelBackgroundColor=default;endArrow=classic;" edge="1" parent="1" source="0KqqUuabSOPp1zFiWMTm-31" target="0KqqUuabSOPp1zFiWMTm-46">
          <mxGeometry relative="1" as="geometry" />
        </mxCell>
        <mxCell id="0KqqUuabSOPp1zFiWMTm-31" value="War of Satyr" style="rounded=0;whiteSpace=wrap;html=1;strokeColor=default;align=center;verticalAlign=middle;fontFamily=Helvetica;fontSize=12;fontColor=#000000;labelBorderColor=none;labelBackgroundColor=default;fillColor=default;" vertex="1" parent="1">
          <mxGeometry x="825.0000000000002" y="3610" width="57.14" height="30" as="geometry" />
        </mxCell>
        <mxCell id="0KqqUuabSOPp1zFiWMTm-32" value="" style="edgeStyle=none;shape=connector;rounded=0;orthogonalLoop=1;jettySize=auto;html=1;strokeColor=default;align=center;verticalAlign=middle;fontFamily=Helvetica;fontSize=11;fontColor=default;labelBackgroundColor=default;endArrow=classic;" edge="1" parent="1" source="0KqqUuabSOPp1zFiWMTm-11" target="0KqqUuabSOPp1zFiWMTm-31">
          <mxGeometry relative="1" as="geometry" />
        </mxCell>
        <mxCell id="0KqqUuabSOPp1zFiWMTm-33" style="edgeStyle=none;shape=connector;rounded=0;orthogonalLoop=1;jettySize=auto;html=1;strokeColor=default;align=center;verticalAlign=middle;fontFamily=Helvetica;fontSize=11;fontColor=default;labelBackgroundColor=default;endArrow=classic;" edge="1" parent="1" source="0KqqUuabSOPp1zFiWMTm-34" target="0KqqUuabSOPp1zFiWMTm-29">
          <mxGeometry relative="1" as="geometry">
            <mxPoint x="1240" y="3505" as="targetPoint" />
          </mxGeometry>
        </mxCell>
        <mxCell id="0KqqUuabSOPp1zFiWMTm-34" value="Zandalari Troll Wars" style="rounded=0;whiteSpace=wrap;html=1;strokeColor=default;align=center;verticalAlign=middle;fontFamily=Helvetica;fontSize=12;fontColor=#000000;labelBorderColor=none;labelBackgroundColor=default;fillColor=default;" vertex="1" parent="1">
          <mxGeometry x="1156.7100000000003" y="3490" width="57.14" height="30" as="geometry" />
        </mxCell>
        <mxCell id="0KqqUuabSOPp1zFiWMTm-35" value="" style="edgeStyle=none;shape=connector;rounded=0;orthogonalLoop=1;jettySize=auto;html=1;strokeColor=default;align=center;verticalAlign=middle;fontFamily=Helvetica;fontSize=11;fontColor=default;labelBackgroundColor=default;endArrow=classic;" edge="1" parent="1" source="0KqqUuabSOPp1zFiWMTm-36" target="0KqqUuabSOPp1zFiWMTm-34">
          <mxGeometry relative="1" as="geometry" />
        </mxCell>
        <mxCell id="0KqqUuabSOPp1zFiWMTm-36" value="Pandaren Revolution&lt;div&gt;-Mogu&#39;shan Vault Battle&lt;/div&gt;&lt;div&gt;-Assault on Vale&lt;/div&gt;" style="rounded=0;whiteSpace=wrap;html=1;strokeColor=default;align=center;verticalAlign=middle;fontFamily=Helvetica;fontSize=12;fontColor=#000000;labelBorderColor=none;labelBackgroundColor=default;fillColor=default;" vertex="1" parent="1">
          <mxGeometry x="996.9200000000001" y="3490" width="131.65" height="30" as="geometry" />
        </mxCell>
        <mxCell id="0KqqUuabSOPp1zFiWMTm-37" value="" style="edgeStyle=none;shape=connector;rounded=0;orthogonalLoop=1;jettySize=auto;html=1;strokeColor=default;align=center;verticalAlign=middle;fontFamily=Helvetica;fontSize=11;fontColor=default;labelBackgroundColor=default;endArrow=classic;" edge="1" parent="1" source="0KqqUuabSOPp1zFiWMTm-38" target="0KqqUuabSOPp1zFiWMTm-36">
          <mxGeometry relative="1" as="geometry" />
        </mxCell>
        <mxCell id="0KqqUuabSOPp1zFiWMTm-38" value="Great Purge" style="rounded=0;whiteSpace=wrap;html=1;strokeColor=default;align=center;verticalAlign=middle;fontFamily=Helvetica;fontSize=12;fontColor=#000000;labelBorderColor=none;labelBackgroundColor=default;fillColor=default;" vertex="1" parent="1">
          <mxGeometry x="908.5700000000002" y="3490" width="57.14" height="30" as="geometry" />
        </mxCell>
        <mxCell id="0KqqUuabSOPp1zFiWMTm-39" style="edgeStyle=none;shape=connector;rounded=0;orthogonalLoop=1;jettySize=auto;html=1;entryX=0;entryY=0.5;entryDx=0;entryDy=0;strokeColor=default;align=center;verticalAlign=middle;fontFamily=Helvetica;fontSize=11;fontColor=default;labelBackgroundColor=default;endArrow=classic;" edge="1" parent="1" source="0KqqUuabSOPp1zFiWMTm-40" target="0KqqUuabSOPp1zFiWMTm-38">
          <mxGeometry relative="1" as="geometry" />
        </mxCell>
        <mxCell id="0KqqUuabSOPp1zFiWMTm-40" value="Aqir and Troll War" style="rounded=0;whiteSpace=wrap;html=1;strokeColor=default;align=center;verticalAlign=middle;fontFamily=Helvetica;fontSize=12;fontColor=#000000;labelBorderColor=none;labelBackgroundColor=default;fillColor=default;" vertex="1" parent="1">
          <mxGeometry x="831.2500000000002" y="3490" width="57.14" height="30" as="geometry" />
        </mxCell>
        <mxCell id="0KqqUuabSOPp1zFiWMTm-41" style="edgeStyle=none;shape=connector;rounded=0;orthogonalLoop=1;jettySize=auto;html=1;strokeColor=default;align=center;verticalAlign=middle;fontFamily=Helvetica;fontSize=11;fontColor=default;labelBackgroundColor=default;endArrow=classic;" edge="1" parent="1" source="0KqqUuabSOPp1zFiWMTm-42" target="0KqqUuabSOPp1zFiWMTm-40">
          <mxGeometry relative="1" as="geometry" />
        </mxCell>
        <mxCell id="0KqqUuabSOPp1zFiWMTm-42" value="First War Between&lt;div&gt;&amp;nbsp;Earthen-Iron Dwarves&lt;/div&gt;" style="rounded=0;whiteSpace=wrap;html=1;strokeColor=default;align=center;verticalAlign=middle;fontFamily=Helvetica;fontSize=12;fontColor=#000000;labelBorderColor=none;labelBackgroundColor=default;fillColor=default;" vertex="1" parent="1">
          <mxGeometry x="700" y="3490" width="110" height="30" as="geometry" />
        </mxCell>
        <mxCell id="0KqqUuabSOPp1zFiWMTm-43" style="edgeStyle=none;shape=connector;rounded=0;orthogonalLoop=1;jettySize=auto;html=1;entryX=0.25;entryY=1;entryDx=0;entryDy=0;strokeColor=default;align=center;verticalAlign=middle;fontFamily=Helvetica;fontSize=11;fontColor=default;labelBackgroundColor=default;endArrow=classic;" edge="1" parent="1" source="0KqqUuabSOPp1zFiWMTm-7" target="0KqqUuabSOPp1zFiWMTm-14">
          <mxGeometry relative="1" as="geometry" />
        </mxCell>
        <mxCell id="0KqqUuabSOPp1zFiWMTm-44" style="edgeStyle=none;shape=connector;rounded=0;orthogonalLoop=1;jettySize=auto;html=1;entryX=0.004;entryY=0.372;entryDx=0;entryDy=0;entryPerimeter=0;strokeColor=default;align=center;verticalAlign=middle;fontFamily=Helvetica;fontSize=11;fontColor=default;labelBackgroundColor=default;endArrow=classic;" edge="1" parent="1" source="0KqqUuabSOPp1zFiWMTm-7" target="0KqqUuabSOPp1zFiWMTm-2">
          <mxGeometry relative="1" as="geometry" />
        </mxCell>
        <mxCell id="0KqqUuabSOPp1zFiWMTm-45" value="" style="edgeStyle=none;shape=connector;rounded=0;orthogonalLoop=1;jettySize=auto;html=1;strokeColor=default;align=center;verticalAlign=middle;fontFamily=Helvetica;fontSize=11;fontColor=default;labelBackgroundColor=default;endArrow=classic;" edge="1" parent="1" source="0KqqUuabSOPp1zFiWMTm-46" target="0KqqUuabSOPp1zFiWMTm-48">
          <mxGeometry relative="1" as="geometry" />
        </mxCell>
        <mxCell id="0KqqUuabSOPp1zFiWMTm-46" value="Troll Wars" style="rounded=0;whiteSpace=wrap;html=1;strokeColor=default;align=center;verticalAlign=middle;fontFamily=Helvetica;fontSize=12;fontColor=#000000;labelBorderColor=none;labelBackgroundColor=default;fillColor=default;" vertex="1" parent="1">
          <mxGeometry x="915.0000000000002" y="3610" width="57.14" height="30" as="geometry" />
        </mxCell>
        <mxCell id="0KqqUuabSOPp1zFiWMTm-47" value="" style="edgeStyle=none;shape=connector;rounded=0;orthogonalLoop=1;jettySize=auto;html=1;strokeColor=default;align=center;verticalAlign=middle;fontFamily=Helvetica;fontSize=11;fontColor=default;labelBackgroundColor=default;endArrow=classic;" edge="1" parent="1" source="0KqqUuabSOPp1zFiWMTm-48" target="0KqqUuabSOPp1zFiWMTm-50">
          <mxGeometry relative="1" as="geometry" />
        </mxCell>
        <mxCell id="0KqqUuabSOPp1zFiWMTm-48" value="War Against Drust" style="rounded=0;whiteSpace=wrap;html=1;strokeColor=default;align=center;verticalAlign=middle;fontFamily=Helvetica;fontSize=12;fontColor=#000000;labelBorderColor=none;labelBackgroundColor=default;fillColor=default;" vertex="1" parent="1">
          <mxGeometry x="996.3400000000004" y="3610" width="57.14" height="30" as="geometry" />
        </mxCell>
        <mxCell id="0KqqUuabSOPp1zFiWMTm-49" value="" style="edgeStyle=none;shape=connector;rounded=0;orthogonalLoop=1;jettySize=auto;html=1;strokeColor=default;align=center;verticalAlign=middle;fontFamily=Helvetica;fontSize=11;fontColor=default;labelBackgroundColor=default;endArrow=classic;" edge="1" parent="1" source="0KqqUuabSOPp1zFiWMTm-50" target="0KqqUuabSOPp1zFiWMTm-52">
          <mxGeometry relative="1" as="geometry" />
        </mxCell>
        <mxCell id="0KqqUuabSOPp1zFiWMTm-50" value="Gurubashi Civil Wa" style="rounded=0;whiteSpace=wrap;html=1;strokeColor=default;align=center;verticalAlign=middle;fontFamily=Helvetica;fontSize=12;fontColor=#000000;labelBorderColor=none;labelBackgroundColor=default;fillColor=default;" vertex="1" parent="1">
          <mxGeometry x="1079.7500000000005" y="3610" width="57.14" height="30" as="geometry" />
        </mxCell>
        <mxCell id="0KqqUuabSOPp1zFiWMTm-51" value="" style="edgeStyle=none;shape=connector;rounded=0;orthogonalLoop=1;jettySize=auto;html=1;strokeColor=default;align=center;verticalAlign=middle;fontFamily=Helvetica;fontSize=11;fontColor=default;labelBackgroundColor=default;endArrow=classic;" edge="1" parent="1" source="0KqqUuabSOPp1zFiWMTm-52" target="0KqqUuabSOPp1zFiWMTm-54">
          <mxGeometry relative="1" as="geometry" />
        </mxCell>
        <mxCell id="0KqqUuabSOPp1zFiWMTm-52" value="War of the Shifting Sands" style="rounded=0;whiteSpace=wrap;html=1;strokeColor=default;align=center;verticalAlign=middle;fontFamily=Helvetica;fontSize=12;fontColor=#000000;labelBorderColor=none;labelBackgroundColor=default;fillColor=default;" vertex="1" parent="1">
          <mxGeometry x="1151.2400000000002" y="3610" width="57.14" height="30" as="geometry" />
        </mxCell>
        <mxCell id="0KqqUuabSOPp1zFiWMTm-53" value="" style="edgeStyle=none;shape=connector;rounded=0;orthogonalLoop=1;jettySize=auto;html=1;strokeColor=default;align=center;verticalAlign=middle;fontFamily=Helvetica;fontSize=11;fontColor=default;labelBackgroundColor=default;endArrow=classic;" edge="1" parent="1" source="0KqqUuabSOPp1zFiWMTm-54" target="0KqqUuabSOPp1zFiWMTm-55">
          <mxGeometry relative="1" as="geometry" />
        </mxCell>
        <mxCell id="0KqqUuabSOPp1zFiWMTm-54" value="War of the Three Hammers&lt;div&gt;(I &amp;amp; II)&lt;/div&gt;" style="rounded=0;whiteSpace=wrap;html=1;strokeColor=default;align=center;verticalAlign=middle;fontFamily=Helvetica;fontSize=12;fontColor=#000000;labelBorderColor=none;labelBackgroundColor=default;fillColor=default;" vertex="1" parent="1">
          <mxGeometry x="1230" y="3610" width="57.14" height="30" as="geometry" />
        </mxCell>
        <mxCell id="0KqqUuabSOPp1zFiWMTm-55" value="Trade Wars" style="rounded=0;whiteSpace=wrap;html=1;strokeColor=default;align=center;verticalAlign=middle;fontFamily=Helvetica;fontSize=12;fontColor=#000000;labelBorderColor=none;labelBackgroundColor=default;fillColor=default;" vertex="1" parent="1">
          <mxGeometry x="1299.9999999999998" y="3610" width="57.14" height="30" as="geometry" />
        </mxCell>
        <mxCell id="0KqqUuabSOPp1zFiWMTm-56" value="Burning Crusade" style="rounded=0;whiteSpace=wrap;html=1;strokeColor=default;align=left;verticalAlign=top;fontFamily=Helvetica;fontSize=12;fontColor=#000000;labelBorderColor=none;labelBackgroundColor=default;fillColor=default;" vertex="1" parent="1">
          <mxGeometry x="1460" y="3570" width="720" height="240" as="geometry" />
        </mxCell>
        <mxCell id="0KqqUuabSOPp1zFiWMTm-57" value="Dark Portal" style="endArrow=classic;html=1;rounded=0;strokeColor=default;align=center;verticalAlign=middle;fontFamily=Helvetica;fontSize=11;fontColor=default;labelBackgroundColor=default;exitX=1;exitY=0.5;exitDx=0;exitDy=0;" edge="1" parent="1" source="0KqqUuabSOPp1zFiWMTm-2" target="0KqqUuabSOPp1zFiWMTm-56">
          <mxGeometry width="50" height="50" relative="1" as="geometry">
            <mxPoint x="1330" y="3720" as="sourcePoint" />
            <mxPoint x="1380" y="3670" as="targetPoint" />
          </mxGeometry>
        </mxCell>
      </root>
    </mxGraphModel>
  </diagram>
</mxfile>
